Coordinates
version=1
nRows=8
nColumns=40
inDegrees=yes

Units are S.I. units (second, meters, Newtons, ...)
If the header above contains a line with 'inDegrees', this indicates whether rotational values are in degrees (yes) or radians (no).

endheader
time	pelvis_tilt	pelvis_list	pelvis_rotation	pelvis_tx	pelvis_ty	pelvis_tz	hip_flexion_r	hip_adduction_r	hip_rotation_r	knee_angle_r	knee_angle_r_beta	ankle_angle_r	subtalar_angle_r	mtp_angle_r	hip_flexion_l	hip_adduction_l	hip_rotation_l	knee_angle_l	knee_angle_l_beta	ankle_angle_l	subtalar_angle_l	mtp_angle_l	lumbar_extension	lumbar_bending	lumbar_rotation	arm_flex_r	arm_add_r	arm_rot_r	elbow_flex_r	pro_sup_r	wrist_flex_r	wrist_dev_r	arm_flex_l	arm_add_l	arm_rot_l	elbow_flex_l	pro_sup_l	wrist_flex_l	wrist_dev_l
      3.77000000	    -43.27439784	     -6.64839227	      1.83804228	     -0.41951447	      0.61668929	     -0.87961318	    102.01641740	    -21.49145178	     -8.54451180	     92.32330772	      1.61134570	     30.31897152	      0.00000000	      0.00000000	    109.64030044	    -21.19196272	      7.41834622	     91.30207246	      1.59352178	     27.91703250	      0.00000000	      0.00000000	    -12.36237315	      5.90392317	     -7.95969156	    -32.48597419	    -42.91596826	     10.62849836	    118.94411237	     87.91293371	      0.00000000	      0.00000000	    -49.80635544	    -33.85726650	     -1.24896379	    116.53085303	     88.06045244	      0.00000000	      0.00000000
      3.77500000	    -43.16709285	     -6.73291173	      1.97192865	     -0.41918090	      0.61683536	     -0.87990373	    101.83085752	    -21.68447126	     -8.68082143	     92.36211865	      1.61202307	     30.40597084	      0.00000000	      0.00000000	    109.53184576	    -21.04322727	      7.48039883	     91.30698763	      1.59360756	     27.95775534	      0.00000000	      0.00000000	    -12.47344533	      6.05382582	     -7.89305971	    -32.82777051	    -42.79401448	     10.26759520	    119.01016524	     87.93328531	      0.00000000	      0.00000000	    -49.57102478	    -34.02614253	     -0.99452078	    116.49013136	     88.05543319	      0.00000000	      0.00000000
      3.78000000	    -43.16429848	     -6.69269151	      2.00286814	     -0.41913693	      0.61684202	     -0.87995970	    101.85165866	    -21.70313613	     -8.59865405	     92.38091871	      1.61235120	     30.47737245	      0.00000000	      0.00000000	    109.48464913	    -21.04311274	      7.37220262	     91.27828684	      1.59310664	     28.13366245	      0.00000000	      0.00000000	    -12.46582365	      6.02960927	     -7.93834745	    -32.79091130	    -42.80689705	     10.32612864	    118.95707083	     87.87212023	      0.00000000	      0.00000000	    -49.53405821	    -34.09904005	     -0.92616702	    116.41494908	     88.08814804	      0.00000000	      0.00000000
      3.78500000	    -43.11520226	     -6.77314948	      2.15198907	     -0.41895447	      0.61688675	     -0.88030787	    101.75609299	    -21.92143548	     -8.70507152	     92.40106020	      1.61270273	     30.40492112	      0.00000000	      0.00000000	    109.46366634	    -20.86192670	      7.42502999	     91.30920253	      1.59364622	     27.96428082	      0.00000000	      0.00000000	    -12.52437934	      6.17398043	     -8.03404446	    -32.94167212	    -42.74938604	     10.13848906	    119.00173161	     87.91114937	      0.00000000	      0.00000000	    -49.51908656	    -34.06400673	     -0.93411687	    116.42518138	     88.07521072	      0.00000000	      0.00000000
      3.79000000	    -43.14827442	     -6.80381239	      2.34673170	     -0.41885127	      0.61692695	     -0.88084784	    101.76293793	    -22.15309834	     -8.68016945	     92.40168336	      1.61271361	     30.43328531	      0.00000000	      0.00000000	    109.45103059	    -20.61070515	      7.39269964	     91.26788343	      1.59292507	     27.88560194	      0.00000000	      0.00000000	    -12.44906982	      6.28164620	     -8.23929307	    -32.88224237	    -42.82699707	     10.24373544	    118.93226832	     87.84372242	      0.00000000	      0.00000000	    -49.41047277	    -34.07919080	     -0.76205544	    116.33381279	     88.05451179	      0.00000000	      0.00000000
      3.79500000	    -42.99094194	     -6.91964299	      2.62505047	     -0.41846861	      0.61703624	     -0.88143589	    101.56074913	    -22.57632558	     -8.87046484	     92.54763948	      1.61526102	     30.48019342	      0.00000000	      0.00000000	    109.29445260	    -20.30168444	      7.44565949	     91.25624330	      1.59272191	     27.90376094	      0.00000000	      0.00000000	    -12.59059654	      6.49035960	     -8.55252860	    -32.81463674	    -42.94376539	     10.27477034	    118.90932255	     87.93488198	      0.00000000	      0.00000000	    -49.47640807	    -33.89561232	     -0.90559432	    116.29616920	     88.05658503	      0.00000000	      0.00000000
      3.80000000	    -42.84172812	     -6.96210991	      2.68966404	     -0.41803008	      0.61728478	     -0.88163978	    101.33320653	    -22.67509084	     -8.94938395	     92.55143147	      1.61532721	     30.51048485	      0.00000000	      0.00000000	    109.13575777	    -20.28124366	      7.41975589	     91.30934574	      1.59364872	     28.00204227	      0.00000000	      0.00000000	    -12.75559809	      6.59025389	     -8.40174528	    -33.18058990	    -42.76281462	      9.84061713	    118.95725879	     87.92260640	      0.00000000	      0.00000000	    -49.20419426	    -34.13693310	     -0.61325529	    116.21745287	     88.06120975	      0.00000000	      0.00000000
      3.80500000	    -42.99198267	     -6.77553357	      2.51001711	     -0.41847200	      0.61709109	     -0.88122758	    101.62240510	    -22.39588015	     -8.66604079	     92.50435708	      1.61450560	     30.44529654	      0.00000000	      0.00000000	    109.22516192	    -20.49107275	      7.25391499	     91.29299219	      1.59336330	     27.99636708	      0.00000000	      0.00000000	    -12.62063578	      6.33357248	     -8.24811851	    -33.32112396	    -42.70745249	      9.83637018	    119.08790528	     87.77237031	      0.00000000	      0.00000000	    -49.21626875	    -34.34271671	     -0.59864603	    116.33726218	     88.24109719	      0.00000000	      0.00000000
